{"asset":{"version":"2.0","generator":"Portfolio procedural Mercedes-inspired F1 GLTF"},"scene":0,"scenes":[{"nodes":[0]}],"nodes":[{"name":"Mercedes-inspired Formula Car","mesh":0,"scale":[1,1,1]}],"meshes":[{"name":"Mercedes-inspired Formula Car","primitives":[{"attributes":{"POSITION":0,"NORMAL":1},"indices":2,"material":0},{"attributes":{"POSITION":3,"NORMAL":4},"indices":5,"material":1},{"attributes":{"POSITION":6,"NORMAL":7},"indices":8,"material":1},{"attributes":{"POSITION":9,"NORMAL":10},"indices":11,"material":2},{"attributes":{"POSITION":12,"NORMAL":13},"indices":14,"material":0},{"attributes":{"POSITION":15,"NORMAL":16},"indices":17,"material":1},{"attributes":{"POSITION":18,"NORMAL":19},"indices":20,"material":0},{"attributes":{"POSITION":21,"NORMAL":22},"indices":23,"material":1},{"attributes":{"POSITION":24,"NORMAL":25},"indices":26,"material":0},{"attributes":{"POSITION":27,"NORMAL":28},"indices":29,"material":0},{"attributes":{"POSITION":30,"NORMAL":31},"indices":32,"material":0},{"attributes":{"POSITION":33,"NORMAL":34},"indices":35,"material":0},{"attributes":{"POSITION":36,"NORMAL":37},"indices":38,"material":3},{"attributes":{"POSITION":39,"NORMAL":40},"indices":41,"material":4},{"attributes":{"POSITION":42,"NORMAL":43},"indices":44,"material":3},{"attributes":{"POSITION":45,"NORMAL":46},"indices":47,"material":4},{"attributes":{"POSITION":48,"NORMAL":49},"indices":50,"material":3},{"attributes":{"POSITION":51,"NORMAL":52},"indices":53,"material":4},{"attributes":{"POSITION":54,"NORMAL":55},"indices":56,"material":3},{"attributes":{"POSITION":57,"NORMAL":58},"indices":59,"material":4},{"attributes":{"POSITION":60,"NORMAL":61},"indices":62,"material":2},{"attributes":{"POSITION":63,"NORMAL":64},"indices":65,"material":2},{"attributes":{"POSITION":66,"NORMAL":67},"indices":68,"material":2},{"attributes":{"POSITION":69,"NORMAL":70},"indices":71,"material":2}]}],"materials":[{"name":"Petronas Black","pbrMetallicRoughness":{"baseColorFactor":[0.005,0.007,0.008,1],"metallicFactor":0.45,"roughnessFactor":0.32}},{"name":"Mercedes Teal","pbrMetallicRoughness":{"baseColorFactor":[0,0.82,0.75,1],"metallicFactor":0.35,"roughnessFactor":0.24}},{"name":"Silver Carbon","pbrMetallicRoughness":{"baseColorFactor":[0.72,0.78,0.78,1],"metallicFactor":0.7,"roughnessFactor":0.2}},{"name":"Soft Tire","pbrMetallicRoughness":{"baseColorFactor":[0.004,0.004,0.004,1],"metallicFactor":0.0,"roughnessFactor":0.86}},{"name":"Yellow Tire Stripe","pbrMetallicRoughness":{"baseColorFactor":[1,0.78,0.08,1],"metallicFactor":0.0,"roughnessFactor":0.48}}],"buffers":[{"uri":"data:application/octet-stream;base64,","byteLength":37632}],"bufferViews":[{"buffer":0,"byteOffset":0,"byteLength":288,"target":34962},{"buffer":0,"byteOffset":288,"byteLength":288,"target":34962},{"buffer":0,"byteOffset":576,"byteLength":72,"target":34963},{"buffer":0,"byteOffset":648,"byteLength":288,"target":34962},{"buffer":0,"byteOffset":936,"byteLength":288,"target":34962},{"buffer":0,"byteOffset":1224,"byteLength":72,"target":34963},{"buffer":0,"byteOffset":1296,"byteLength":288,"target":34962},{"buffer":0,"byteOffset":1584,"byteLength":288,"target":34962},{"buffer":0,"byteOffset":1872,"byteLength":72,"target":34963},{"buffer":0,"byteOffset":1944,"byteLength":288,"target":34962},{"buffer":0,"byteOffset":2232,"byteLength":288,"target":34962},{"buffer":0,"byteOffset":2520,"byteLength":72,"target":34963},{"buffer":0,"byteOffset":2592,"byteLength":288,"target":34962},{"buffer":0,"byteOffset":2880,"byteLength":288,"target":34962},{"buffer":0,"byteOffset":3168,"byteLength":72,"target":34963},{"buffer":0,"byteOffset":3240,"byteLength":288,"target":34962},{"buffer":0,"byteOffset":3528,"byteLength":288,"target":34962},{"buffer":0,"byteOffset":3816,"byteLength":72,"target":34963},{"buffer":0,"byteOffset":3888,"byteLength":288,"target":34962},{"buffer":0,"byteOffset":4176,"byteLength":288,"target":34962},{"buffer":0,"byteOffset":4464,"byteLength":72,"target":34963},{"buffer":0,"byteOffset":4536,"byteLength":288,"target":34962},{"buffer":0,"byteOffset":4824,"byteLength":288,"target":34962},{"buffer":0,"byteOffset":5112,"byteLength":72,"target":34963},{"buffer":0,"byteOffset":5184,"byteLength":288,"target":34962},{"buffer":0,"byteOffset":5472,"byteLength":288,"target":34962},{"buffer":0,"byteOffset":5760,"byteLength":72,"target":34963},{"buffer":0,"byteOffset":5832,"byteLength":288,"target":34962},{"buffer":0,"byteOffset":6120,"byteLength":288,"target":34962},{"buffer":0,"byteOffset":6408,"byteLength":72,"target":34963},{"buffer":0,"byteOffset":6480,"byteLength":288,"target":34962},{"buffer":0,"byteOffset":6768,"byteLength":288,"target":34962},{"buffer":0,"byteOffset":7056,"byteLength":72,"target":34963},{"buffer":0,"byteOffset":7128,"byteLength":288,"target":34962},{"buffer":0,"byteOffset":7416,"byteLength":288,"target":34962},{"buffer":0,"byteOffset":7704,"byteLength":72,"target":34963},{"buffer":0,"byteOffset":7776,"byteLength":1368,"target":34962},{"buffer":0,"byteOffset":9144,"byteLength":1368,"target":34962},{"buffer":0,"byteOffset":10512,"byteLength":672,"target":34963},{"buffer":0,"byteOffset":11184,"byteLength":1368,"target":34962},{"buffer":0,"byteOffset":12552,"byteLength":1368,"target":34962},{"buffer":0,"byteOffset":13920,"byteLength":672,"target":34963},{"buffer":0,"byteOffset":14592,"byteLength":1368,"target":34962},{"buffer":0,"byteOffset":15960,"byteLength":1368,"target":34962},{"buffer":0,"byteOffset":17328,"byteLength":672,"target":34963},{"buffer":0,"byteOffset":18000,"byteLength":1368,"target":34962},{"buffer":0,"byteOffset":19368,"byteLength":1368,"target":34962},{"buffer":0,"byteOffset":20736,"byteLength":672,"target":34963},{"buffer":0,"byteOffset":21408,"byteLength":1368,"target":34962},{"buffer":0,"byteOffset":22776,"byteLength":1368,"target":34962},{"buffer":0,"byteOffset":24144,"byteLength":672,"target":34963},{"buffer":0,"byteOffset":24816,"byteLength":1368,"target":34962},{"buffer":0,"byteOffset":26184,"byteLength":1368,"target":34962},{"buffer":0,"byteOffset":27552,"byteLength":672,"target":34963},{"buffer":0,"byteOffset":28224,"byteLength":1368,"target":34962},{"buffer":0,"byteOffset":29592,"byteLength":1368,"target":34962},{"buffer":0,"byteOffset":30960,"byteLength":672,"target":34963},{"buffer":0,"byteOffset":31632,"byteLength":1368,"target":34962},{"buffer":0,"byteOffset":33000,"byteLength":1368,"target":34962},{"buffer":0,"byteOffset":34368,"byteLength":672,"target":34963},{"buffer":0,"byteOffset":35040,"byteLength":288,"target":34962},{"buffer":0,"byteOffset":35328,"byteLength":288,"target":34962},{"buffer":0,"byteOffset":35616,"byteLength":72,"target":34963},{"buffer":0,"byteOffset":35688,"byteLength":288,"target":34962},{"buffer":0,"byteOffset":35976,"byteLength":288,"target":34962},{"buffer":0,"byteOffset":36264,"byteLength":72,"target":34963},{"buffer":0,"byteOffset":36336,"byteLength":288,"target":34962},{"buffer":0,"byteOffset":36624,"byteLength":288,"target":34962},{"buffer":0,"byteOffset":36912,"byteLength":72,"target":34963},{"buffer":0,"byteOffset":36984,"byteLength":288,"target":34962},{"buffer":0,"byteOffset":37272,"byteLength":288,"target":34962},{"buffer":0,"byteOffset":37560,"byteLength":72,"target":34963}],"accessors":[{"bufferView":0,"componentType":5126,"count":24,"type":"VEC3","min":[-0.625,0.275,-1.5999999999999999],"max":[0.625,0.8250000000000001,1.3]},{"bufferView":1,"componentType":5126,"count":24,"type":"VEC3","min":[-1,-1,-1],"max":[1,1,1]},{"bufferView":2,"componentType":5123,"count":36,"type":"SCALAR","min":[0],"max":[23]},{"bufferView":3,"componentType":5126,"count":24,"type":"VEC3","min":[-0.99,0.27,-0.645],"max":[-0.5700000000000001,0.69,0.8049999999999999]},{"bufferView":4,"componentType":5126,"count":24,"type":"VEC3","min":[-1,-1,-1],"max":[1,1,1]},{"bufferView":5,"componentType":5123,"count":36,"type":"SCALAR","min":[0],"max":[23]},{"bufferView":6,"componentType":5126,"count":24,"type":"VEC3","min":[0.5700000000000001,0.27,-0.645],"max":[0.99,0.69,0.8049999999999999]},{"bufferView":7,"componentType":5126,"count":24,"type":"VEC3","min":[-1,-1,-1],"max":[1,1,1]},{"bufferView":8,"componentType":5123,"count":36,"type":"SCALAR","min":[0],"max":[23]},{"bufferView":9,"componentType":5126,"count":24,"type":"VEC3","min":[-0.21,0.31,-3.15],"max":[0.21,0.5900000000000001,-0.9499999999999997]},{"bufferView":10,"componentType":5126,"count":24,"type":"VEC3","min":[-1,-1,-1],"max":[1,1,1]},{"bufferView":11,"componentType":5123,"count":36,"type":"SCALAR","min":[0],"max":[23]},{"bufferView":12,"componentType":5126,"count":24,"type":"VEC3","min":[-1.325,0.185,-3.56],"max":[1.325,0.315,-3.14]},{"bufferView":13,"componentType":5126,"count":24,"type":"VEC3","min":[-1,-1,-1],"max":[1,1,1]},{"bufferView":14,"componentType":5123,"count":36,"type":"SCALAR","min":[0],"max":[23]},{"bufferView":15,"componentType":5126,"count":24,"type":"VEC3","min":[-1.075,0.32,-3.1599999999999997],"max":[1.075,0.39999999999999997,-2.94]},{"bufferView":16,"componentType":5126,"count":24,"type":"VEC3","min":[-1,-1,-1],"max":[1,1,1]},{"bufferView":17,"componentType":5123,"count":36,"type":"SCALAR","min":[0],"max":[23]},{"bufferView":18,"componentType":5126,"count":24,"type":"VEC3","min":[-1.225,0.8300000000000001,1.5],"max":[1.225,1.01,1.8599999999999999]},{"bufferView":19,"componentType":5126,"count":24,"type":"VEC3","min":[-1,-1,-1],"max":[1,1,1]},{"bufferView":20,"componentType":5123,"count":36,"type":"SCALAR","min":[0],"max":[23]},{"bufferView":21,"componentType":5126,"count":24,"type":"VEC3","min":[-1.025,0.52,1.4],"max":[1.025,0.6399999999999999,1.6400000000000001]},{"bufferView":22,"componentType":5126,"count":24,"type":"VEC3","min":[-1,-1,-1],"max":[1,1,1]},{"bufferView":23,"componentType":5123,"count":36,"type":"SCALAR","min":[0],"max":[23]},{"bufferView":24,"componentType":5126,"count":24,"type":"VEC3","min":[-1.075,0.24000000000000002,-1.95],"max":[1.075,0.32,1.95]},{"bufferView":25,"componentType":5126,"count":24,"type":"VEC3","min":[-1,-1,-1],"max":[1,1,1]},{"bufferView":26,"componentType":5123,"count":36,"type":"SCALAR","min":[0],"max":[23]},{"bufferView":27,"componentType":5126,"count":24,"type":"VEC3","min":[-0.08,0.58,0.06999999999999995],"max":[0.08,1.38,1.17]},{"bufferView":28,"componentType":5126,"count":24,"type":"VEC3","min":[-1,-1,-1],"max":[1,1,1]},{"bufferView":29,"componentType":5123,"count":36,"type":"SCALAR","min":[0],"max":[23]},{"bufferView":30,"componentType":5126,"count":24,"type":"VEC3","min":[-0.49,0.955,-0.54],"max":[0.49,1.045,-0.42]},{"bufferView":31,"componentType":5126,"count":24,"type":"VEC3","min":[-1,-1,-1],"max":[1,1,1]},{"bufferView":32,"componentType":5123,"count":36,"type":"SCALAR","min":[0],"max":[23]},{"bufferView":33,"componentType":5126,"count":24,"type":"VEC3","min":[-0.05,0.9149999999999999,-0.52],"max":[0.05,1.005,0.12]},{"bufferView":34,"componentType":5126,"count":24,"type":"VEC3","min":[-1,-1,-1],"max":[1,1,1]},{"bufferView":35,"componentType":5123,"count":36,"type":"SCALAR","min":[0],"max":[23]},{"bufferView":36,"componentType":5126,"count":114,"type":"VEC3","min":[-1.3399999999999999,-0.03999999999999998,-1.77],"max":[-0.96,0.8,-0.9300000000000002]},{"bufferView":37,"componentType":5126,"count":114,"type":"VEC3","min":[-1,-1.0,-1.0],"max":[1,1.0,1.0]},{"bufferView":38,"componentType":5123,"count":336,"type":"SCALAR","min":[0],"max":[113]},{"bufferView":39,"componentType":5126,"count":114,"type":"VEC3","min":[-1.1775,-0.05499999999999999,-1.7850000000000001],"max":[-1.1224999999999998,0.815,-0.915]},{"bufferView":40,"componentType":5126,"count":114,"type":"VEC3","min":[-1,-1.0,-1.0],"max":[1,1.0,1.0]},{"bufferView":41,"componentType":5123,"count":336,"type":"SCALAR","min":[0],"max":[113]},{"bufferView":42,"componentType":5126,"count":114,"type":"VEC3","min":[-1.3399999999999999,-0.03999999999999998,0.76],"max":[-0.96,0.8,1.5999999999999999]},{"bufferView":43,"componentType":5126,"count":114,"type":"VEC3","min":[-1,-1.0,-1.0],"max":[1,1.0,1.0]},{"bufferView":44,"componentType":5123,"count":336,"type":"SCALAR","min":[0],"max":[113]},{"bufferView":45,"componentType":5126,"count":114,"type":"VEC3","min":[-1.1775,-0.05499999999999999,0.7449999999999999],"max":[-1.1224999999999998,0.815,1.615]},{"bufferView":46,"componentType":5126,"count":114,"type":"VEC3","min":[-1,-1.0,-1.0],"max":[1,1.0,1.0]},{"bufferView":47,"componentType":5123,"count":336,"type":"SCALAR","min":[0],"max":[113]},{"bufferView":48,"componentType":5126,"count":114,"type":"VEC3","min":[0.96,-0.03999999999999998,-1.77],"max":[1.3399999999999999,0.8,-0.9300000000000002]},{"bufferView":49,"componentType":5126,"count":114,"type":"VEC3","min":[-1,-1.0,-1.0],"max":[1,1.0,1.0]},{"bufferView":50,"componentType":5123,"count":336,"type":"SCALAR","min":[0],"max":[113]},{"bufferView":51,"componentType":5126,"count":114,"type":"VEC3","min":[1.1224999999999998,-0.05499999999999999,-1.7850000000000001],"max":[1.1775,0.815,-0.915]},{"bufferView":52,"componentType":5126,"count":114,"type":"VEC3","min":[-1,-1.0,-1.0],"max":[1,1.0,1.0]},{"bufferView":53,"componentType":5123,"count":336,"type":"SCALAR","min":[0],"max":[113]},{"bufferView":54,"componentType":5126,"count":114,"type":"VEC3","min":[0.96,-0.03999999999999998,0.76],"max":[1.3399999999999999,0.8,1.5999999999999999]},{"bufferView":55,"componentType":5126,"count":114,"type":"VEC3","min":[-1,-1.0,-1.0],"max":[1,1.0,1.0]},{"bufferView":56,"componentType":5123,"count":336,"type":"SCALAR","min":[0],"max":[113]},{"bufferView":57,"componentType":5126,"count":114,"type":"VEC3","min":[1.1224999999999998,-0.05499999999999999,0.7449999999999999],"max":[1.1775,0.815,1.615]},{"bufferView":58,"componentType":5126,"count":114,"type":"VEC3","min":[-1,-1.0,-1.0],"max":[1,1.0,1.0]},{"bufferView":59,"componentType":5123,"count":336,"type":"SCALAR","min":[0],"max":[113]},{"bufferView":60,"componentType":5126,"count":24,"type":"VEC3","min":[-1.16,0.4,-1.37],"max":[0.0,0.45999999999999996,-1.31]},{"bufferView":61,"componentType":5126,"count":24,"type":"VEC3","min":[-1,-1,-1],"max":[1,1,1]},{"bufferView":62,"componentType":5123,"count":36,"type":"SCALAR","min":[0],"max":[23]},{"bufferView":63,"componentType":5126,"count":24,"type":"VEC3","min":[0.0,0.4,-1.37],"max":[1.16,0.45999999999999996,-1.31]},{"bufferView":64,"componentType":5126,"count":24,"type":"VEC3","min":[-1,-1,-1],"max":[1,1,1]},{"bufferView":65,"componentType":5123,"count":36,"type":"SCALAR","min":[0],"max":[23]},{"bufferView":66,"componentType":5126,"count":24,"type":"VEC3","min":[-1.16,0.4,1.15],"max":[0.0,0.45999999999999996,1.21]},{"bufferView":67,"componentType":5126,"count":24,"type":"VEC3","min":[-1,-1,-1],"max":[1,1,1]},{"bufferView":68,"componentType":5123,"count":36,"type":"SCALAR","min":[0],"max":[23]},{"bufferView":69,"componentType":5126,"count":24,"type":"VEC3","min":[0.0,0.4,1.15],"max":[1.16,0.45999999999999996,1.21]},{"bufferView":70,"componentType":5126,"count":24,"type":"VEC3","min":[-1,-1,-1],"max":[1,1,1]},{"bufferView":71,"componentType":5123,"count":36,"type":"SCALAR","min":[0],"max":[23]}]}